<svg class="svg-icon" style="width: 1.044921875em; height: 1em;vertical-align: middle;fill: currentColor;overflow: hidden;" viewBox="0 0 1070 1024" version="1.1" xmlns="http://www.w3.org/2000/svg"><path d="M725.333333 170.666667h128a42.666667 42.666667 0 0 1 42.666667 42.666666v384h-85.333333V384H128v469.333333h213.333333v85.333334H85.333333a42.666667 42.666667 0 0 1-42.666666-42.666667V213.333333a42.666667 42.666667 0 0 1 42.666666-42.666666h128V85.333333h128v85.333334h256V85.333333h128v85.333334zM213.333333 597.333333v-128h128v128H213.333333z m213.333334 0v-128h128v128h-128z m-213.333334 170.666667v-128h128v128H213.333333z" fill="#1768E4" /><path d="M986.112 682.88c-18.901333-29.056-58.752-36.010667-88.746667-18.688l-137.301333 79.232-195.754667-108.672-73.898666 42.666667 145.877333 137.472-109.013333 62.976-94.421334-44.032-55.424 32 177.066667 116.906666a42.666667 42.666667 0 0 0 44.8 1.28l69.546667-40.106666 295.637333-170.666667a64 64 0 0 0 21.632-90.368" fill="#8BB3F1" /></svg>